HIERARCHY
ROOT Hips
{
	OFFSET 0.00000 0.00000 0.00000
	CHANNELS 6 Xposition Yposition Zposition Yrotation Zrotation Xrotation 
	JOINT Lumbar
	{
		OFFSET 0 0 0
		CHANNELS 3 Zrotation Xrotation Yrotation
		JOINT Neck
		{
			OFFSET 0.00 0.2701 0.00
			CHANNELS 3 Zrotation Xrotation Yrotation
			End Site
			{
				OFFSET 0.00 0.1379 0.00
			}
		}
		JOINT RightShoulder
		{
			OFFSET 0.0119 0.2289 0.1181
			CHANNELS 3 Zrotation Xrotation Yrotation
			JOINT RightElbow
			{
				OFFSET 0.00 -0.1475 0.00
				CHANNELS 2 Zrotation Yrotation
				JOINT RightWrist
				{
					OFFSET 0.00 -0.1605 0.00
					CHANNELS 2 Zrotation Xrotation
					End Site
					{
						OFFSET 0.0040 -0.1068 0.0006
					}
				}
			}
		}
		JOINT LeftShoulder
		{
			OFFSET 0.0119 0.2289 -0.1181
			CHANNELS 3 Zrotation Xrotation Yrotation
			JOINT LeftElbow
			{
				OFFSET 0.00 -0.1475 0.00
				CHANNELS 2 Zrotation Yrotation
				JOINT LeftWrist
				{
					OFFSET 0.00 -0.1605 0.00
					CHANNELS 2 Zrotation Xrotation
					End Site
					{
						OFFSET 0.0040 -0.1068 -0.0006
					}
				}
			}
		}
	}
	JOINT RightHip
	{
		OFFSET 0.0316 -0.0424 0.0458
		CHANNELS 3 Zrotation Xrotation Yrotation
		JOINT RightKnee
		{
			OFFSET 0.00 -0.2438 0.00
			CHANNELS 1 Zrotation
			JOINT RightAnkle
			{
				OFFSET 0.00 -0.2449 0.00
				CHANNELS 3 Zrotation Xrotation Yrotation
				End Site
				{
					OFFSET 0.1237 -0.0542 0.0051
				}
			}
		}
	}
	JOINT LeftHip
	{
		OFFSET 0.0316 -0.0424 -0.0458
		CHANNELS 3 Zrotation Xrotation Yrotation
		JOINT LeftKnee
		{
			OFFSET 0.00 -0.2438 0.00
			CHANNELS 1 Zrotation
			JOINT LeftAnkle
			{
				OFFSET 0.00 -0.2449 0.00
				CHANNELS 3 Zrotation Xrotation Yrotation
				End Site
				{
					OFFSET 0.1237 -0.0542 -0.0051
				}
			}
		}
	}
}
MOTION
Frames: 17
Frame Time: 0.02
-0 0.57926 0 190.64277 0 -3.35046 7.08249 3.91759 -1.27804 -12.73474 0.78979 -1.60019 -1.29313 -12.45581 -66.1813 5.78689 74.44812 -3.43313 1.01848 -2.75272 8.88009 80.19843 5.78688 -81.35769 -4.40792 2.86488 -4.20333 8.64533 11.24568 -5.29202 2.16355 -4.36234 -13.94045 -3.71464 1.02107 -8.39809 -6.36369 7.68109 4.8941 6.71228
-0.00021 0.57929 -0.00043 190.75741 0 -3.30579 6.98662 3.96434 -1.20413 -12.78307 0.64873 -1.56716 -1.92176 -12.17329 -70.39206 5.7869 74.85796 -3.61764 0.9595 -3.62003 8.83182 81.59346 5.78689 -81.37418 -4.54537 2.79944 -4.23687 8.64963 11.13862 -5.26115 2.16813 -4.3452 -13.9472 -3.67179 1.01005 -8.50778 -6.4473 7.67177 4.91191 6.76305
-0.00042 0.57932 -0.00087 190.87257 0 -3.26117 6.89142 4.01098 -1.13072 -12.83178 0.50851 -1.53434 -2.54413 -11.8935 -74.56984 5.78691 75.26538 -3.80156 0.90146 -4.47683 8.78461 82.9774 5.7869 -81.39 -4.68145 2.73396 -4.27022 8.65361 11.02325 -5.23011 2.17323 -4.32746 -13.9461 -3.62861 0.99903 -8.61804 -6.53091 7.66241 4.92946 6.81361
-0.00063 0.57935 -0.0013 190.98988 0 -3.21647 6.79792 4.0575 -1.05819 -12.88237 0.36941 -1.50186 -3.15302 -11.61907 -78.65524 5.78691 75.66987 -3.98673 0.8469 -5.3079 8.74053 84.33105 5.78691 -81.40368 -4.81498 2.66834 -4.30318 8.65594 10.8696 -5.19861 2.18102 -4.30678 -13.90848 -3.58453 0.98803 -8.73014 -6.61468 7.65292 4.9455 6.86332
-0.00087 0.57938 -0.00173 191.0945 0 -3.17238 6.69536 4.10453 -0.98049 -12.9229 0.22335 -1.46734 -3.83992 -11.31283 -83.22844 5.78692 76.09318 -4.16744 0.77426 -6.28479 8.67905 85.84605 5.78693 -81.42923 -4.96389 2.60428 -4.33824 8.66652 10.91393 -5.17017 2.17523 -4.30125 -14.05812 -3.54624 0.97706 -8.83064 -6.69676 7.64429 4.96871 6.91694
-0.00103 0.57941 -0.00217 191.22674 0 -3.12693 6.6121 4.1505 -0.91415 -12.98474 0.09284 -1.43732 -4.35664 -11.07653 -86.76639 5.78693 76.47401 -4.35592 0.7397 -6.94584 8.65499 87.01762 5.78694 -81.42929 -5.07885 2.53642 -4.36882 8.65994 10.54274 -5.13488 2.19772 -4.26396 -13.81573 -3.49507 0.96597 -8.95683 -6.78291 7.63373 4.97729 6.96267
-0.00099 0.57942 -0.00263 191.43464 0 -3.07728 6.58146 4.19418 -0.87573 -13.1086 -0.00253 -1.41823 -4.437 -11.01424 -87.42416 5.78692 76.76329 -4.5845 0.8153 -6.77346 8.73353 87.23728 5.78694 -81.35783 -5.11075 2.46024 -4.38729 8.60166 8.94262 -5.08247 2.3057 -4.13216 -12.40795 -3.41072 0.95461 -9.15 -6.87877 7.61818 4.93951 6.98344
-0.00088 0.57942 -0.0031 191.67092 0 -3.02628 6.5703 4.23675 -0.84948 -13.25337 -0.08094 -1.40405 -4.33865 -11.02618 -87.03771 5.78691 77.00548 -4.8178 0.92864 -6.274 8.85055 87.10665 5.78694 -81.25969 -5.10663 2.37955 -4.40114 8.52675 6.93571 -5.02275 2.44095 -3.96936 -10.61768 -3.31258 0.94305 -9.37025 -6.97942 7.60057 4.88792 6.99688
-0.00079 0.57943 -0.00357 191.89468 0 -2.97613 6.55081 4.27943 -0.81973 -13.38693 -0.16205 -1.3884 -4.30129 -11.0163 -87.14834 5.7869 77.25255 -5.03703 1.02141 -5.89975 8.94996 87.1445 5.78693 -81.17578 -5.11178 2.29963 -4.41705 8.46217 5.16645 -4.96519 2.55915 -3.82504 -9.05488 -3.2194 0.93157 -9.58072 -7.07862 7.58365 4.84658 7.01576
-0.00075 0.57944 -0.00403 192.11618 0 -2.92498 6.52961 4.32367 -0.78096 -13.52845 -0.26397 -1.36901 -4.35257 -10.95543 -87.17901 5.7869 77.56845 -5.30633 1.12808 -5.62798 9.04791 87.16145 5.78694 -81.08743 -5.14606 2.22587 -4.43346 8.38595 3.1766 -4.91263 2.69724 -3.66236 -7.26734 -3.13281 0.92032 -9.77973 -7.17352 7.56782 4.78883 7.02565
-0.00059 0.57944 -0.00451 192.34992 0 -2.87561 6.516 4.36451 -0.76446 -13.6574 -0.31892 -1.35924 -4.17263 -11.01933 -87.10895 5.78689 77.7309 -5.47273 1.2154 -5.06056 9.16049 87.11568 5.78696 -80.99645 -5.11216 2.13729 -4.44733 8.32996 1.54708 -4.8478 2.80008 -3.53035 -5.85517 -3.02791 0.90831 -10.01 -7.28004 7.54919 4.76152 7.05265
-0.00018 0.5794 -0.00507 192.60404 0 -2.83141 6.52361 4.39562 -0.80119 -13.75475 -0.24541 -1.36924 -3.43233 -11.40111 -87.1772 5.78687 77.47246 -5.35136 1.23369 -3.7941 9.28384 87.17461 5.78686 -80.95538 -4.89011 2.01793 -4.45846 8.33466 1.03495 -4.75203 2.80125 -3.49267 -5.59055 -2.88653 0.89639 -10.31206 -7.40492 7.52358 4.82566 7.12803
0.00035 0.57935 -0.00565 192.87071 0 -2.78912 6.53717 4.42362 -0.86079 -13.83725 -0.1261 -1.38981 -2.45832 -11.90723 -87.14695 5.78691 77.06329 -5.12663 1.23175 -2.23364 9.42485 87.14294 5.78705 -80.90543 -4.60256 1.88309 -4.46646 8.36025 0.89665 -4.64407 2.76537 -3.48674 -5.71503 -2.72497 0.88327 -10.64627 -7.54402 7.49517 4.92024 7.22121
0.00084 0.57931 -0.00622 193.13593 0 -2.74591 6.54484 4.45322 -0.91348 -13.9211 -0.02923 -1.4092 -1.56971 -12.36229 -87.06025 5.78685 76.72831 -4.95094 1.24404 -0.78434 9.5704 87.03144 5.78692 -80.82335 -4.35042 1.74818 -4.47402 8.37565 0.57032 -4.54082 2.74515 -3.46469 -5.64807 -2.56592 0.86937 -10.97073 -7.68438 7.46792 4.99815 7.30647
0.00124 0.57926 -0.00678 193.38427 0 -2.70259 6.56702 4.48133 -0.95226 -14.02825 0.07647 -1.41345 -0.76582 -12.79797 -87.37731 5.78686 76.36591 -4.76704 1.23899 0.5783 9.66221 87.43376 5.7866 -80.88348 -4.07226 1.63914 -4.48986 8.39299 0.30038 -4.44038 2.73163 -3.4479 -5.6236 -2.43548 0.86126 -11.275 -7.79085 7.44114 5.08722 7.38999
0.00188 0.57923 -0.00738 193.67028 0 -2.66034 6.55968 4.51266 -1.02481 -14.08336 0.17269 -1.45169 0.27159 -13.30128 -86.82743 5.78703 76.02764 -4.57518 1.26148 2.19113 9.87218 86.72988 5.78798 -80.65765 -3.8344 1.47757 -4.48706 8.41199 0.01458 -4.33183 2.69403 -3.42908 -5.61538 -2.23961 0.84059 -11.62937 -7.97306 7.41266 5.16087 7.48244
0.00311 0.57926 -0.00808 194.05824 0 -2.61757 6.47309 4.54644 -1.1891 -13.99585 0.24679 -1.58116 1.86278 -13.97167 -84.05174 5.78652 75.77462 -4.39091 1.39314 4.38601 10.38141 83.16208 5.78537 -79.54141 -3.71489 1.13159 -4.43977 8.4261 -0.47096 -4.19904 2.60759 -3.38834 -5.49327 -1.87816 0.78726 -12.10775 -8.34623 7.38113 5.18117 7.58691
